<?xml version="1.0" encoding="UTF-8" standalone="no"?>
<!-- Created with Inkscape (http://www.inkscape.org/) -->
<svg
   xmlns:dc="http://purl.org/dc/elements/1.1/"
   xmlns:cc="http://web.resource.org/cc/"
   xmlns:rdf="http://www.w3.org/1999/02/22-rdf-syntax-ns#"
   xmlns:svg="http://www.w3.org/2000/svg"
   xmlns="http://www.w3.org/2000/svg"
   xmlns:sodipodi="http://sodipodi.sourceforge.net/DTD/sodipodi-0.dtd"
   xmlns:inkscape="http://www.inkscape.org/namespaces/inkscape"
   width="400"
   height="50"
   id="svg2"
   sodipodi:version="0.32"
   inkscape:version="0.45.1"
   version="1.0"
   sodipodi:docbase="/Users/ezrakatz/Desktop"
   sodipodi:docname="NumberLineIntegersAlt.svg"
   inkscape:output_extension="org.inkscape.output.svg.inkscape"
   inkscape:export-filename="/Users/ezrakatz/Documents/BasicMath/NumberLine.png"
   inkscape:export-xdpi="180"
   inkscape:export-ydpi="180">
  <defs
     id="defs4">
    <marker
       inkscape:stockid="StopL"
       orient="auto"
       refY="0.0"
       refX="0.0"
       id="StopL"
       style="overflow:visible">
      <path
         id="path3272"
         d="M 0.0,5.65 L 0.0,-5.65"
         style="fill:none;fill-opacity:0.75000000;fill-rule:evenodd;stroke:#000000;stroke-width:1.0pt"
         transform="scale(0.8)" />
    </marker>
    <marker
       inkscape:stockid="Dot_l"
       orient="auto"
       refY="0.0"
       refX="0.0"
       id="Dot_l"
       style="overflow:visible">
      <path
         id="path3227"
         d="M -2.5,-1.0 C -2.5,1.7600000 -4.7400000,4.0 -7.5,4.0 C -10.260000,4.0 -12.5,1.7600000 -12.5,-1.0 C -12.5,-3.7600000 -10.260000,-6.0 -7.5,-6.0 C -4.7400000,-6.0 -2.5,-3.7600000 -2.5,-1.0 z "
         style="fill-rule:evenodd;stroke:#000000;stroke-width:1.0pt;marker-start:none;marker-end:none"
         transform="scale(0.8) translate(7.4, 1)" />
    </marker>
    <marker
       inkscape:stockid="RazorWire"
       id="RazorWire"
       refX="0"
       refY="0"
       orient="auto">
       style=&quot;overflow:visible&quot;&gt;
      <path
   id="path3751"
   transform="scale(0.8,0.8)"
   style="fill:#808080;fill-opacity:1;fill-rule:evenodd;stroke:#000000;stroke-width:0.1pt"
   d="M 0.022727273,-0.74009011 L 0.022727273,0.69740989 L -7.7585227,3.0099099 L 10.678977,3.0099099 L 3.4914773,0.69740989 L 3.4914773,-0.74009011 L 10.741477,-2.8963401 L -7.7272727,-2.8963401 L 0.022727273,-0.74009011 z " />
</marker>
    <marker
       inkscape:stockid="DiamondL"
       orient="auto"
       refY="0.0"
       refX="0.0"
       id="DiamondL"
       style="overflow:visible">
      <path
         id="path3661"
         d="M 0,-7.0710768 L -7.0710894,0 L 0,7.0710589 L 7.0710462,0 L 0,-7.0710768 z "
         style="fill-rule:evenodd;stroke:#000000;stroke-width:1.0pt;marker-start:none"
         transform="scale(0.8)" />
    </marker>
    <marker
       inkscape:stockid="Dot_m"
       orient="auto"
       refY="0.0"
       refX="0.0"
       id="Dot_m"
       style="overflow:visible">
      <path
         id="path3646"
         d="M -2.5,-1.0 C -2.5,1.7600000 -4.7400000,4.0 -7.5,4.0 C -10.260000,4.0 -12.5,1.7600000 -12.5,-1.0 C -12.5,-3.7600000 -10.260000,-6.0 -7.5,-6.0 C -4.7400000,-6.0 -2.5,-3.7600000 -2.5,-1.0 z "
         style="fill-rule:evenodd;stroke:#000000;stroke-width:1.0pt;marker-start:none;marker-end:none"
         transform="scale(0.4) translate(7.4, 1)" />
    </marker>
    <marker
       inkscape:stockid="Arrow1Lend"
       orient="auto"
       refY="0"
       refX="0"
       id="Arrow1Lend"
       style="overflow:visible">
      <path
         id="path3584"
         d="M 0,0 L 5,-5 L -12.5,0 L 5,5 L 0,0 z "
         style="fill-rule:evenodd;stroke:#000000;stroke-width:1pt;marker-start:none"
         transform="matrix(-0.8,0,0,-0.8,-10,0)" />
    </marker>
    <marker
       inkscape:stockid="TriangleInL"
       orient="auto"
       refY="0"
       refX="0"
       id="TriangleInL"
       style="overflow:visible">
      <path
         id="path3670"
         d="M 5.77,0 L -2.88,5 L -2.88,-5 L 5.77,0 z "
         style="fill-rule:evenodd;stroke:#000000;stroke-width:1pt;marker-start:none"
         transform="scale(-0.8,-0.8)" />
    </marker>
    <marker
       inkscape:stockid="Arrow1Mstart"
       orient="auto"
       refY="0"
       refX="0"
       id="Arrow1Mstart"
       style="overflow:visible">
      <path
         id="path3587"
         d="M 0,0 L 5,-5 L -12.5,0 L 5,5 L 0,0 z "
         style="fill-rule:evenodd;stroke:#000000;stroke-width:1pt;marker-start:none"
         transform="matrix(0.4,0,0,0.4,4,0)" />
    </marker>
    <marker
       inkscape:stockid="Arrow1Lstart"
       orient="auto"
       refY="0"
       refX="0"
       id="Arrow1Lstart"
       style="overflow:visible">
      <path
         id="path3581"
         d="M 0,0 L 5,-5 L -12.5,0 L 5,5 L 0,0 z "
         style="fill-rule:evenodd;stroke:#000000;stroke-width:1pt;marker-start:none"
         transform="matrix(0.8,0,0,0.8,10,0)" />
    </marker>
  </defs>
  <sodipodi:namedview
     id="base"
     pagecolor="#ffffff"
     bordercolor="#666666"
     borderopacity="1.0"
     gridtolerance="10000"
     guidetolerance="10"
     objecttolerance="10"
     inkscape:pageopacity="0.0"
     inkscape:pageshadow="2"
     inkscape:zoom="7.9195959"
     inkscape:cx="52.143012"
     inkscape:cy="11.483946"
     inkscape:document-units="px"
     inkscape:current-layer="g2179"
     width="400px"
     height="50px"
     inkscape:window-width="1329"
     inkscape:window-height="810"
     inkscape:window-x="80"
     inkscape:window-y="0"
     showguides="true"
     inkscape:guide-bbox="true" />
  <metadata
     id="metadata7">
    <rdf:RDF>
      <cc:Work
         rdf:about="">
        <dc:format>image/svg+xml</dc:format>
        <dc:type
           rdf:resource="http://purl.org/dc/dcmitype/StillImage" />
      </cc:Work>
    </rdf:RDF>
  </metadata>
  <g
     inkscape:label="Layer 1"
     inkscape:groupmode="layer"
     id="layer1">
    <path
       style="font-size:12px;font-style:normal;font-weight:normal;fill:#000000;fill-opacity:1;stroke:none;stroke-width:1px;stroke-linecap:butt;stroke-linejoin:miter;stroke-opacity:1;font-family:Bitstream Vera Sans"
       d="M 23.938099,40.28371 L 27.924427,40.28371 L 27.924427,42.130878 L 23.938099,42.130878 L 23.938099,40.28371 M 33.345325,40.271015 C 32.917912,40.27102 32.596298,40.410668 32.380482,40.68996 C 32.16889,40.96503 32.063095,41.379743 32.063099,41.934101 C 32.063095,42.488466 32.16889,42.905295 32.380482,43.184589 C 32.596298,43.459656 32.917912,43.597188 33.345325,43.597187 C 33.776961,43.597188 34.098575,43.459656 34.310169,43.184589 C 34.525984,42.905295 34.633894,42.488466 34.6339,41.934101 C 34.633894,41.379743 34.525984,40.96503 34.310169,40.68996 C 34.098575,40.410668 33.776961,40.27102 33.345325,40.271015 M 36.36681,35.719746 L 36.36681,37.471699 C 35.964784,37.281277 35.586041,37.141628 35.230579,37.052753 C 34.875104,36.959662 34.5281,36.913113 34.189564,36.913105 C 33.461694,36.913113 32.894638,37.116238 32.488392,37.52248 C 32.082138,37.924505 31.84516,38.5233 31.777454,39.318867 C 32.056748,39.111516 32.359319,38.957056 32.685169,38.855488 C 33.011011,38.7497 33.36648,38.696803 33.751575,38.696796 C 34.720645,38.696803 35.501406,38.980331 36.093861,39.547382 C 36.690532,40.114444 36.988872,40.85712 36.98888,41.77541 C 36.988872,42.791037 36.656678,43.605652 35.992298,44.219257 C 35.327903,44.828632 34.437117,45.13332 33.319935,45.13332 C 32.088486,45.13332 31.134223,44.718607 30.457142,43.889179 C 29.784289,43.055522 29.447864,41.874859 29.447865,40.347187 C 29.447864,38.781438 29.841418,37.55211 30.628529,36.659199 C 31.419867,35.762073 32.503199,35.313505 33.878529,35.313496 C 34.314395,35.313505 34.737572,35.347359 35.14806,35.415058 C 35.558535,35.482776 35.964784,35.584338 36.36681,35.719746 M 51.969349,40.28371 L 55.955677,40.28371 L 55.955677,42.130878 L 51.969349,42.130878 L 51.969349,40.28371 M 58.050404,35.472187 L 64.125111,35.472187 L 64.125111,37.268574 L 59.999134,37.268574 L 59.999134,38.734882 C 60.185328,38.684107 60.371526,38.646021 60.557728,38.620625 C 60.748153,38.591009 60.944931,38.576197 61.14806,38.576191 C 62.303328,38.576197 63.202578,38.866073 63.845814,39.44582 C 64.489035,40.021346 64.810649,40.825381 64.810658,41.857929 C 64.810649,42.88202 64.459413,43.68394 63.756947,44.263691 C 63.058698,44.843444 62.087508,45.13332 60.843372,45.13332 C 60.305934,45.13332 59.772731,45.080423 59.243763,44.974628 C 58.719021,44.873066 58.196398,44.716491 57.675892,44.504902 L 57.675892,42.581562 C 58.192166,42.877788 58.680935,43.099956 59.1422,43.248066 C 59.607692,43.396179 60.04568,43.470235 60.456165,43.470234 C 61.048609,43.470235 61.514103,43.326355 61.85265,43.038593 C 62.195418,42.746603 62.366804,42.353049 62.36681,41.857929 C 62.366804,41.358584 62.195418,40.96503 61.85265,40.677265 C 61.514103,40.389509 61.048609,40.245629 60.456165,40.245625 C 60.104925,40.245629 59.730414,40.292179 59.33263,40.385273 C 58.934841,40.474145 58.507433,40.613793 58.050404,40.804218 L 58.050404,35.472187 M 79.975208,40.28371 L 83.961536,40.28371 L 83.961536,42.130878 L 79.975208,42.130878 L 79.975208,40.28371 M 89.464954,37.484394 L 86.786243,41.451679 L 89.464954,41.451679 L 89.464954,37.484394 M 89.058704,35.472187 L 91.775501,35.472187 L 91.775501,41.451679 L 93.127552,41.451679 L 93.127552,43.222675 L 91.775501,43.222675 L 91.775501,44.949238 L 89.464954,44.949238 L 89.464954,43.222675 L 85.262806,43.222675 L 85.262806,41.127949 L 89.058704,35.472187 M 107.98107,40.28371 L 111.9674,40.28371 L 111.9674,42.130878 L 107.98107,42.130878 L 107.98107,40.28371 M 118.74035,39.839375 C 119.37934,40.004419 119.86387,40.292179 120.19396,40.702656 C 120.52826,41.10891 120.69542,41.627301 120.69542,42.257832 C 120.69542,43.197286 120.33571,43.912455 119.61632,44.403339 C 118.89691,44.889993 117.84744,45.13332 116.46788,45.13332 C 115.98123,45.13332 115.49246,45.093118 115.00158,45.012714 C 114.51492,44.936543 114.0325,44.820169 113.55431,44.663593 L 113.55431,42.778339 C 114.01134,43.006857 114.46414,43.180359 114.91271,43.298847 C 115.36551,43.413107 115.80984,43.470235 116.24572,43.470234 C 116.89317,43.470235 117.38829,43.358094 117.73107,43.133808 C 118.07807,42.909526 118.25157,42.587912 118.25158,42.168964 C 118.25157,41.737327 118.07384,41.411481 117.71837,41.191425 C 117.36713,40.967145 116.84662,40.855004 116.15685,40.855 L 115.17931,40.855 L 115.17931,39.280781 L 116.20763,39.280781 C 116.82123,39.280786 117.27826,39.185572 117.57872,38.995136 C 117.87917,38.800481 118.0294,38.506373 118.02941,38.112812 C 118.0294,37.748887 117.88341,37.467474 117.59142,37.268574 C 117.29942,37.069688 116.88683,36.970242 116.35363,36.970234 C 115.96007,36.970242 115.56228,37.014675 115.16027,37.103535 C 114.75825,37.19241 114.35834,37.323594 113.96056,37.497089 L 113.96056,35.70705 C 114.44298,35.571643 114.92117,35.470081 115.39513,35.402363 C 115.86909,35.334664 116.33458,35.30081 116.79161,35.3008 C 118.02305,35.30081 118.94346,35.503935 119.55285,35.910175 C 120.16644,36.312202 120.47325,36.919461 120.47326,37.731953 C 120.47325,38.286321 120.32725,38.741236 120.03527,39.096699 C 119.74327,39.447941 119.31163,39.6955 118.74035,39.839375 M 135.98693,40.28371 L 139.97326,40.28371 L 139.97326,42.130878 L 135.98693,42.130878 L 135.98693,40.28371 M 144.43566,43.152851 L 148.60607,43.152851 L 148.60607,44.949238 L 141.71886,44.949238 L 141.71886,43.152851 L 145.17833,40.099628 C 145.48725,39.820337 145.71576,39.547388 145.86388,39.280781 C 146.01199,39.014185 146.08604,38.737004 146.08605,38.449238 C 146.08604,38.004909 145.93582,37.647325 145.63536,37.376484 C 145.33914,37.105658 144.94347,36.970242 144.44835,36.970234 C 144.06749,36.970242 143.65066,37.052761 143.19786,37.217793 C 142.74506,37.378607 142.26053,37.619818 141.74425,37.941425 L 141.74425,35.859394 C 142.29438,35.677437 142.83816,35.539905 143.3756,35.446796 C 143.91303,35.349475 144.43989,35.30081 144.95617,35.3008 C 146.09027,35.30081 146.97048,35.550484 147.59679,36.049824 C 148.22732,36.549181 148.54258,37.245307 148.54259,38.138203 C 148.54258,38.654485 148.40928,39.136906 148.14269,39.585468 C 147.87608,40.029809 147.31537,40.626488 146.46056,41.375507 L 144.43566,43.152851 M 163.99279,40.28371 L 167.97911,40.28371 L 167.97911,42.130878 L 163.99279,42.130878 L 163.99279,40.28371 M 170.21984,43.260761 L 172.37804,43.260761 L 172.37804,37.135273 L 170.16271,37.592304 L 170.16271,35.929218 L 172.36535,35.472187 L 174.68859,35.472187 L 174.68859,43.260761 L 176.84679,43.260761 L 176.84679,44.949238 L 170.21984,44.949238 L 170.21984,43.260761 M 201.79308,40.201191 C 201.79307,39.016301 201.68093,38.182643 201.45665,37.700214 C 201.2366,37.213568 200.8642,36.970242 200.33947,36.970234 C 199.81472,36.970242 199.44021,37.213568 199.21593,37.700214 C 198.99164,38.182643 198.8795,39.016301 198.87951,40.201191 C 198.8795,41.398786 198.99164,42.243023 199.21593,42.733906 C 199.44021,43.224793 199.81472,43.470235 200.33947,43.470234 C 200.85997,43.470235 201.23236,43.224793 201.45665,42.733906 C 201.68093,42.243023 201.79307,41.398786 201.79308,40.201191 M 204.23693,40.220234 C 204.23692,41.790224 203.89838,43.002625 203.2213,43.857441 C 202.54421,44.708027 201.5836,45.13332 200.33947,45.13332 C 199.09109,45.13332 198.12836,44.708027 197.45128,43.857441 C 196.7742,43.002625 196.43566,41.790224 196.43566,40.220234 C 196.43566,38.646021 196.7742,37.43362 197.45128,36.583027 C 198.12836,35.728218 199.09109,35.30081 200.33947,35.3008 C 201.5836,35.30081 202.54421,35.728218 203.2213,36.583027 C 203.89838,37.43362 204.23692,38.646021 204.23693,40.220234 M 224.45421,43.260761 L 226.61242,43.260761 L 226.61242,37.135273 L 224.39708,37.592304 L 224.39708,35.929218 L 226.59972,35.472187 L 228.92296,35.472187 L 228.92296,43.260761 L 231.08117,43.260761 L 231.08117,44.949238 L 224.45421,44.949238 L 224.45421,43.260761 M 253.79308,43.152851 L 257.96349,43.152851 L 257.96349,44.949238 L 251.07628,44.949238 L 251.07628,43.152851 L 254.53576,40.099628 C 254.84467,39.820337 255.07319,39.547388 255.2213,39.280781 C 255.36941,39.014185 255.44346,38.737004 255.44347,38.449238 C 255.44346,38.004909 255.29324,37.647325 254.99279,37.376484 C 254.69656,37.105658 254.30089,36.970242 253.80577,36.970234 C 253.42491,36.970242 253.00808,37.052761 252.55529,37.217793 C 252.10248,37.378607 251.61795,37.619818 251.10167,37.941425 L 251.10167,35.859394 C 251.6518,35.677437 252.19558,35.539905 252.73302,35.446796 C 253.27045,35.349475 253.79731,35.30081 254.31359,35.3008 C 255.4477,35.30081 256.3279,35.550484 256.95421,36.049824 C 257.58474,36.549181 257.90001,37.245307 257.90001,38.138203 C 257.90001,38.654485 257.7667,39.136906 257.50011,39.585468 C 257.2335,40.029809 256.67279,40.626488 255.81798,41.375507 L 253.79308,43.152851 M 283.22081,39.839375 C 283.8598,40.004419 284.34434,40.292179 284.67443,40.702656 C 285.00873,41.10891 285.17588,41.627301 285.17589,42.257832 C 285.17588,43.197286 284.81618,43.912455 284.09679,44.403339 C 283.37738,44.889993 282.3279,45.13332 280.94835,45.13332 C 280.4617,45.13332 279.97293,45.093118 279.48204,45.012714 C 278.99539,44.936543 278.51297,44.820169 278.03478,44.663593 L 278.03478,42.778339 C 278.49181,43.006857 278.94461,43.180359 279.39318,43.298847 C 279.84597,43.413107 280.29031,43.470235 280.72618,43.470234 C 281.37364,43.470235 281.86876,43.358094 282.21154,43.133808 C 282.55854,42.909526 282.73204,42.587912 282.73204,42.168964 C 282.73204,41.737327 282.5543,41.411481 282.19884,41.191425 C 281.8476,40.967145 281.32709,40.855004 280.63732,40.855 L 279.65978,40.855 L 279.65978,39.280781 L 280.6881,39.280781 C 281.3017,39.280786 281.75873,39.185572 282.05919,38.995136 C 282.35964,38.800481 282.50987,38.506373 282.50988,38.112812 C 282.50987,37.748887 282.36387,37.467474 282.07189,37.268574 C 281.77989,37.069688 281.36729,36.970242 280.8341,36.970234 C 280.44054,36.970242 280.04275,37.014675 279.64074,37.103535 C 279.23872,37.19241 278.83881,37.323594 278.44103,37.497089 L 278.44103,35.70705 C 278.92345,35.571643 279.40164,35.470081 279.8756,35.402363 C 280.34955,35.334664 280.81505,35.30081 281.27208,35.3008 C 282.50352,35.30081 283.42393,35.503935 284.03331,35.910175 C 284.64691,36.312202 284.95372,36.919461 284.95372,37.731953 C 284.95372,38.286321 284.80772,38.741236 284.51574,39.096699 C 284.22374,39.447941 283.7921,39.6955 283.22081,39.839375 M 309.06847,37.484394 L 306.38976,41.451679 L 309.06847,41.451679 L 309.06847,37.484394 M 308.66222,35.472187 L 311.37902,35.472187 L 311.37902,41.451679 L 312.73107,41.451679 L 312.73107,43.222675 L 311.37902,43.222675 L 311.37902,44.949238 L 309.06847,44.949238 L 309.06847,43.222675 L 304.86632,43.222675 L 304.86632,41.127949 L 308.66222,35.472187 M 332.77697,35.472187 L 338.85167,35.472187 L 338.85167,37.268574 L 334.7257,37.268574 L 334.7257,38.734882 C 334.91189,38.684107 335.09809,38.646021 335.28429,38.620625 C 335.47472,38.591009 335.67149,38.576197 335.87462,38.576191 C 337.02989,38.576197 337.92914,38.866073 338.57238,39.44582 C 339.2156,40.021346 339.53721,40.825381 339.53722,41.857929 C 339.53721,42.88202 339.18598,43.68394 338.48351,44.263691 C 337.78526,44.843444 336.81407,45.13332 335.56993,45.13332 C 335.0325,45.13332 334.49929,45.080423 333.97033,44.974628 C 333.44558,44.873066 332.92296,44.716491 332.40245,44.504902 L 332.40245,42.581562 C 332.91873,42.877788 333.4075,43.099956 333.86876,43.248066 C 334.33425,43.396179 334.77224,43.470235 335.18273,43.470234 C 335.77517,43.470235 336.24067,43.326355 336.57921,43.038593 C 336.92198,42.746603 337.09337,42.353049 337.09337,41.857929 C 337.09337,41.358584 336.92198,40.96503 336.57921,40.677265 C 336.24067,40.389509 335.77517,40.245629 335.18273,40.245625 C 334.83149,40.245629 334.45698,40.292179 334.05919,40.385273 C 333.6614,40.474145 333.234,40.613793 332.77697,40.804218 L 332.77697,35.472187 M 363.22033,40.271015 C 362.79291,40.27102 362.4713,40.410668 362.25548,40.68996 C 362.04389,40.96503 361.9381,41.379743 361.9381,41.934101 C 361.9381,42.488466 362.04389,42.905295 362.25548,43.184589 C 362.4713,43.459656 362.79291,43.597188 363.22033,43.597187 C 363.65196,43.597188 363.97358,43.459656 364.18517,43.184589 C 364.40098,42.905295 364.50889,42.488466 364.5089,41.934101 C 364.50889,41.379743 364.40098,40.96503 364.18517,40.68996 C 363.97358,40.410668 363.65196,40.27102 363.22033,40.271015 M 366.24181,35.719746 L 366.24181,37.471699 C 365.83978,37.281277 365.46104,37.141628 365.10558,37.052753 C 364.7501,36.959662 364.4031,36.913113 364.06456,36.913105 C 363.33669,36.913113 362.76964,37.116238 362.36339,37.52248 C 361.95714,37.924505 361.72016,38.5233 361.65245,39.318867 C 361.93175,39.111516 362.23432,38.957056 362.56017,38.855488 C 362.88601,38.7497 363.24148,38.696803 363.62658,38.696796 C 364.59564,38.696803 365.37641,38.980331 365.96886,39.547382 C 366.56553,40.114444 366.86387,40.85712 366.86388,41.77541 C 366.86387,42.791037 366.53168,43.605652 365.8673,44.219257 C 365.2029,44.828632 364.31212,45.13332 363.19493,45.13332 C 361.96349,45.13332 361.00922,44.718607 360.33214,43.889179 C 359.65929,43.055522 359.32286,41.874859 359.32286,40.347187 C 359.32286,38.781438 359.71642,37.55211 360.50353,36.659199 C 361.29487,35.762073 362.3782,35.313505 363.75353,35.313496 C 364.1894,35.313505 364.61257,35.347359 365.02306,35.415058 C 365.43353,35.482776 365.83978,35.584338 366.24181,35.719746"
       id="text2185" />
    <g
       id="g2179">
      <path
         style="fill:#000000;fill-opacity:1;fill-rule:evenodd;stroke:none;stroke-width:0.99763459px;stroke-linecap:butt;stroke-linejoin:miter;stroke-opacity:1"
         d="M 2,25.25 L 2,26.25 L 398,26.25 L 398,25.25 L 2,25.25 z "
         id="path2189"
         sodipodi:nodetypes="ccccc" />
      <path
         style="fill:#000000;fill-opacity:1;fill-rule:evenodd;stroke:none;stroke-width:0.79810767pt;stroke-opacity:1"
         d="M 17.6875,20.75 L 15.84375,21.28125 L 1.875,25.28125 L 0.1875,25.75 L 1.875,26.25 L 15.84375,30.21875 L 17.6875,30.75 L 16.3125,29.40625 L 12.65625,25.75 L 16.3125,22.125 L 17.6875,20.75 z "
         id="path2185"
         sodipodi:nodetypes="ccccccccccc" />
      <path
         style="fill:#000000;fill-opacity:1;fill-rule:evenodd;stroke:none;stroke-width:0.79810767pt;stroke-opacity:1"
         d="M 32.71875,21.25 L 32.71875,30.28125 L 33.71875,30.28125 L 33.71875,21.25 L 32.71875,21.25 z "
         id="path2187" />
      <path
         style="fill:#000000;fill-opacity:1;fill-rule:evenodd;stroke:none;stroke-width:0.79810767pt;stroke-opacity:1"
         d="M 60.21875,21.25 L 60.21875,30.28125 L 61.21875,30.28125 L 61.21875,21.25 L 60.21875,21.25 z "
         id="path2190" />
      <path
         style="fill:#000000;fill-opacity:1;fill-rule:evenodd;stroke:none;stroke-width:0.79810767pt;stroke-opacity:1"
         d="M 88.4375,21.25 L 88.4375,30.28125 L 89.4375,30.28125 L 89.4375,21.25 L 88.4375,21.25 z "
         id="path2192" />
      <path
         style="fill:#000000;fill-opacity:1;fill-rule:evenodd;stroke:none;stroke-width:0.79810767pt;stroke-opacity:1"
         d="M 116.65625,21.25 L 116.65625,30.28125 L 117.65625,30.28125 L 117.65625,21.25 L 116.65625,21.25 z "
         id="path2194" />
      <path
         style="fill:#000000;fill-opacity:1;fill-rule:evenodd;stroke:none;stroke-width:0.79810767pt;stroke-opacity:1"
         d="M 144.3125,21.25 L 144.3125,30.28125 L 145.3125,30.28125 L 145.3125,21.25 L 144.3125,21.25 z "
         id="path2196" />
      <path
         style="fill:#000000;fill-opacity:1;fill-rule:evenodd;stroke:none;stroke-width:0.79810767pt;stroke-opacity:1"
         d="M 172.34375,21.25 L 172.34375,30.28125 L 173.34375,30.28125 L 173.34375,21.25 L 172.34375,21.25 z "
         id="path2198" />
      <path
         style="fill:#000000;fill-opacity:1;fill-rule:evenodd;stroke:none;stroke-width:0.79810767pt;stroke-opacity:1"
         d="M 227,21.25 L 227,30.28125 L 228,30.28125 L 228,21.25 L 227,21.25 z "
         id="path2200" />
      <path
         style="fill:#000000;fill-opacity:1;fill-rule:evenodd;stroke:none;stroke-width:0.79810767pt;stroke-opacity:1"
         d="M 253.78125,21.25 L 253.78125,30.28125 L 254.78125,30.28125 L 254.78125,21.25 L 253.78125,21.25 z "
         id="path2202" />
      <path
         style="fill:#000000;fill-opacity:1;fill-rule:evenodd;stroke:none;stroke-width:0.79810767pt;stroke-opacity:1"
         d="M 280.9375,21.25 L 280.9375,30.28125 L 281.9375,30.28125 L 281.9375,21.25 L 280.9375,21.25 z "
         id="path2204" />
      <path
         style="fill:#000000;fill-opacity:1;fill-rule:evenodd;stroke:none;stroke-width:0.79810767pt;stroke-opacity:1"
         d="M 308.4375,21.25 L 308.4375,30.28125 L 309.4375,30.28125 L 309.4375,21.25 L 308.4375,21.25 z "
         id="path2206" />
      <path
         style="fill:#000000;fill-opacity:1;fill-rule:evenodd;stroke:none;stroke-width:0.79810767pt;stroke-opacity:1"
         d="M 334.84375,21.25 L 334.84375,30.28125 L 335.84375,30.28125 L 335.84375,21.25 L 334.84375,21.25 z "
         id="path2208" />
      <path
         style="fill:#000000;fill-opacity:1;fill-rule:evenodd;stroke:none;stroke-width:0.79810767pt;stroke-opacity:1"
         d="M 362.34375,21.25 L 362.34375,30.28125 L 363.34375,30.28125 L 363.34375,21.25 L 362.34375,21.25 z "
         id="path2210" />
      <path
         style="fill:#000000;fill-opacity:1;fill-rule:evenodd;stroke:none;stroke-width:0.79810767pt;stroke-opacity:1"
         d="M 382.3125,20.75 L 383.6875,22.125 L 387.34375,25.75 L 383.6875,29.40625 L 382.3125,30.75 L 384.15625,30.21875 L 398.125,26.25 L 399.8125,25.75 L 398.125,25.28125 L 384.15625,21.28125 L 382.3125,20.75 z "
         id="path2212"
         sodipodi:nodetypes="ccccccccccc" />
    </g>
    <path
       sodipodi:type="arc"
       style="fill:#000000;fill-opacity:1;stroke:none;stroke-width:5.99987173;stroke-linecap:butt;stroke-linejoin:round;stroke-miterlimit:4;stroke-dasharray:none;stroke-opacity:1"
       id="path4331"
       sodipodi:cx="189.10715"
       sodipodi:cy="6.2500005"
       sodipodi:rx="0.17857143"
       sodipodi:ry="0.17857143"
       d="M 189.28572 6.2500005 A 0.17857143 0.17857143 0 1 1  188.92858,6.2500005 A 0.17857143 0.17857143 0 1 1  189.28572 6.2500005 z"
       transform="matrix(14,0,0,14,-2447.4708,-61.85223)" />
  </g>
</svg>
